/* XPM */
static char *_ea6801f3207427ecfd75c82b1656b1bfbTKDAYwYbHcxwcx[] = {
/* columns rows colors chars-per-pixel */
"50 50 234 2 ",
"   c None",
".  c #030302",
"X  c #0D0C0C",
"o  c #090807",
"O  c #100F0C",
"+  c #12110E",
"@  c #141311",
"#  c #1B1B15",
"$  c #1E1C1A",
"%  c #171713",
"&  c #1A0E1D",
"*  c #211E1A",
"=  c #22201B",
"-  c #28251D",
";  c #22391F",
":  c #1D1020",
">  c #301A2F",
",  c #2A2924",
"<  c #3B3C2D",
"1  c #383735",
"2  c #372834",
"3  c #1A2C18",
"4  c #423A38",
"5  c #51312C",
"6  c #603C39",
"7  c #2C4528",
"8  c #3D4B30",
"9  c #3A4F33",
"0  c #2D7036",
"q  c #1F7636",
"w  c #484439",
"e  c #4A5037",
"r  c #704F38",
"t  c #467A3B",
"y  c #4A663A",
"u  c #3F2A48",
"i  c #492949",
"p  c #432558",
"a  c #57345A",
"s  c #533450",
"d  c #573364",
"f  c #67386A",
"g  c #6D3972",
"h  c #3A706B",
"j  c #275D64",
"k  c #4A4749",
"l  c #4D5A44",
"z  c #57554A",
"x  c #564756",
"c  c #5C5755",
"v  c #4D4851",
"b  c #745B53",
"n  c #466742",
"m  c #597948",
"M  c #576F56",
"N  c #696757",
"B  c #74665C",
"V  c #6C7850",
"C  c #5C5B69",
"Z  c #5C476B",
"A  c #684769",
"S  c #74496E",
"D  c #6A5769",
"F  c #754876",
"G  c #785A77",
"H  c #6E5271",
"J  c #6A6866",
"K  c #756A66",
"L  c #79776A",
"P  c #786776",
"I  c #797875",
"U  c #6F7572",
"Y  c #8E4634",
"T  c #B14D3A",
"R  c #C2513F",
"E  c #8C5449",
"W  c #896557",
"Q  c #92704C",
"!  c #AD7251",
"~  c #84776B",
"^  c #977969",
"/  c #877C75",
"(  c #906B70",
")  c #A27D69",
"_  c #DA524A",
"`  c #5A8647",
"'  c #5F9155",
"]  c #508451",
"[  c #658749",
"{  c #678955",
"}  c #738E58",
"|  c #689756",
" . c #779B5A",
".. c #67934B",
"X. c #7AA55C",
"o. c #798867",
"O. c #769867",
"+. c #718A6C",
"@. c #7BAB64",
"#. c #78A766",
"$. c #7FB166",
"%. c #988068",
"&. c #83976B",
"*. c #8B8379",
"=. c #978779",
"-. c #92977A",
";. c #8E926C",
":. c #A08C79",
">. c #B89579",
",. c #AF8B73",
"<. c #87A869",
"1. c #89B56B",
"2. c #96B26D",
"3. c #8AA575",
"4. c #98A97B",
"5. c #8CBE73",
"6. c #87B374",
"7. c #98B878",
"8. c #BDBC6A",
"9. c #A2BC7F",
"0. c #C2987B",
"q. c #8EC177",
"w. c #9BC279",
"e. c #9CCA7C",
"r. c #96C576",
"t. c #A4C47D",
"y. c #A3CA7C",
"u. c #C4C26A",
"i. c #577782",
"p. c #807689",
"a. c #8D6F89",
"s. c #A47F83",
"d. c #77898B",
"f. c #8E8B83",
"g. c #8B8689",
"h. c #958985",
"j. c #9A938C",
"k. c #969588",
"l. c #9D9494",
"z. c #9B949B",
"x. c #9D9A9B",
"c. c #979694",
"v. c #8B968D",
"b. c #A59689",
"n. c #B29C87",
"m. c #A39C93",
"M. c #AA9E94",
"N. c #A49D9B",
"B. c #A4999A",
"V. c #A08198",
"C. c #99B883",
"Z. c #92AC8F",
"A. c #A5BB86",
"S. c #ACA49B",
"D. c #A9A598",
"F. c #B4A494",
"G. c #B3AA9C",
"H. c #BAA99A",
"J. c #B7B89A",
"K. c #ACAC90",
"L. c #829FAA",
"P. c #A999A3",
"I. c #90B3AB",
"U. c #ADA9A4",
"Y. c #A9A6A2",
"T. c #B3ABA4",
"R. c #B7A8A7",
"E. c #BBB4AC",
"W. c #B9B6A6",
"Q. c #B4B7B3",
"!. c #C19882",
"~. c #D5AB89",
"^. c #D9B38E",
"/. c #CEB194",
"(. c #E3BB94",
"). c #E3B08F",
"_. c #C4BAAC",
"`. c #C3B6A8",
"'. c #C3BBB3",
"]. c #C9BFB1",
"[. c #C0AEAF",
"{. c #99C48A",
"}. c #A3C483",
"|. c #A9C987",
" X c #ADD288",
".X c #B2D48B",
"XX c #B3CA95",
"oX c #B8D596",
"OX c #B0C98C",
"+X c #93C4B6",
"@X c #BAC8A7",
"#X c #A8C3BC",
"$X c #C9D79A",
"%X c #EFC59D",
"&X c #C5D8A7",
"*X c #CCC3B5",
"=X c #CBC5BB",
"-X c #CEC8BD",
";X c #C7C4B7",
":X c #D4CBBC",
">X c #D5CABB",
",X c #D3D5BB",
"<X c #D2D0B5",
"1X c #F8D5AD",
"2X c #F3D3B0",
"3X c #D9E3BE",
"4X c #FFE0B8",
"5X c #9DCBCC",
"6X c #A9C4C7",
"7X c #B9CACB",
"8X c #B9D0D2",
"9X c #CBCAC4",
"0X c #D3CDC2",
"qX c #DBD3C4",
"wX c #DBD6CA",
"eX c #DDD9CC",
"rX c #D7D6C5",
"tX c #CED4CD",
"yX c #E3DBCB",
"uX c #E1D8C8",
"iX c #E3DED2",
"pX c #DCE0C7",
"aX c #EBE4D4",
"sX c #EFEADC",
"dX c #E8E6D6",
"fX c #F0E9D7",
"gX c #F3ECDC",
"hX c #F6F0DF",
"jX c #E9E7D2",
"kX c #F3EEE1",
"lX c #F7F1E3",
"zX c #F9F3E4",
"xX c #FAF6E9",
"cX c #FCF9EC",
/* pixels */
"                                                                                                    ",
"                                                                                                    ",
"                                                ( s.^                                               ",
"                                            r W ,.>.) B                                             ",
"                                            =.F.n.M._.,.S                                           ",
"                                            B.h./.T.`.2XF                                           ",
"                                            ,.0.^.(.).(.(                                           ",
"                                          W ,.) >.^.,.~.!.                                          ",
"                                          W ^ h.>X<X(.%X~.                                          ",
"                                          W ) >.~.2X4X1X~.                                          ",
"                              I I         W ^ !.(.4X1X%X!.                                          ",
"                            J U f.*.k     B W ! 0.).(.~.(                                           ",
"                          #.` C i.~ 4 4 4 4 r r E Q %.W a         +.U f.l.                          ",
"                        9 #.{ M U U z e i 2 : 5 5 r 6 a f P     I +.I -.I f                         ",
"                      X 9 ' ' | | #.Z.Y.g.i.P G H A F a.a.g.l.j.l.k.4.t.6.D                         ",
"                    > X 7 ] ] ' #.@.Q.7X9XtXtXtX@X9.A.A.|.OX|.t.{.t..Xw.<.K                         ",
"                    , o ; h j q V } I.6X5X7X6XQ.t.u.8.u.8.8.OX.X X.Xt.C.U < ,                       ",
"                  C 1 . ; h j q r W I.5X6X6X8X+Xr.r.8.y.$X$X.X.XoX|.XXv.= = w k.                    ",
"                I J k . 3 h j q Y Q 6.+X5X5X5X{.1.! ! Q 6..X.X.X X}.wXw - < f.Q.G.                  ",
"              E W / c # $ ] ` n r V X.1.$.{.q.e.,._ _ R <..X.X XA.dXG.# , z D.f.U.                  ",
"            E E :.F.~ w = g.{ | | | #.$.#.5.5.q.7.T T ! t..X XA.pXxXL o = N D.*.D.f.                ",
"            z.V.H.F.n.^ c i.d v V |  .#.#.{.q.q.e.7.2.}.|.OXOXuXzXgXc . # K l.c.f.W.dX              ",
"            P.T.W.F.n.n.*.Z p A v.c.D.'.E.A.C.{.-.o.( s.,XpXgXlXgXaXz . # K *./ N.6Xv.L.            ",
"          C I m.L W =.    p a a.Y.R.'.-XrXqXwXiX'.g g i.[.hXkXgXfXaXJ . , B K *.qXx.L.d.tX          ",
"          +.1.C.M w w     p P B.B.R.E.].:XqXuXiXaX[.F g F [.fXfXaXjXb.% , B b.H.R.k.i.L.dX          ",
"           .@.e.1.t 0     a h.h.K I *.m.[.].qXuXyXyXR.S g g P.iXjXuX].      h.M.`.`.x.;XlXkX        ",
"          ..O.J.,Xk.} N     / w * X X @ = 1 z L m.'.qXR.S f g s.uX0X`.        %.=.F.*XdXsX-X        ",
"          o.S.m.E.0Xh.~     K 5 * X X o o . o o O , b H.R.F g f a.F.            l M -.D.m.S.        ",
"              j.^ 9XE.*.      e $ X X O + + O + O o . $ ~ H.G f a d         3.6.5.w.{.w.k.j.        ",
"                M.R.=Xh.*.      & X X X @ # * , - , = + X B F.P i i       9XrX0XXX|.y.e.3.~         ",
"                  m.F.S.d.t t n $ @ @ @ # # * * = = $ + o ; ~ b.      T.eXiXdXsXaX<X7.1.1.          ",
"                      Y.@.` 0 [ 9 3 X X X @ % # $ $ # = 9 {       W.z.9XeX0X0XqX>X*XJ.<.X.          ",
"                      k.<.| n v { [ y 8 8 < 7 w e l m  .4.&.J ` ..@X0X_._.`.`.`.`.H.F.;...          ",
"                        &.V x C K ~  . . .X.X.X.1.7.A.XX:Xg.J ..' @XlX`.b.n.                        ",
"                          L Z c.m.*.*.-.;.4.4.A.XXH._.eXcXT.D O.| @XuX                              ",
"                            D P.-XyXF.=.M.F.G./.b.M.qXiXlX-XD g.K.W.                                ",
"                              U.0XsXlXG.=.b.n.=.K b.*XuXgXyXK ( H.                                  ",
"                              T.0XsXlXiX=.:.n.B B j.`.qXyXgXS.                                      ",
"                            z.R.rXhXzXfX>X        h.T.>XyXgXgX                                      ",
"                            z.Q.wXgXW.wX          / M.].qXfXhXyX                                    ",
"                            N.E.eXgXT.:X            b.`.:XyXgXaX                                    ",
"                            U.E.iXlXhXuX            h.T.-XyXgXgX                                    ",
"                            ;X0XiXlXgX              h.M.].qXsXgX                                    ",
"                          P.9XeXT.gXaX                m.`.:XaXkXyX                                  ",
"                          N.=XkXQ._.-Xl.              b.M.*XyXgXaX                                  ",
"                          B.=XgXzXyXk.f.              / h._.uXfXfX                                  ",
"                          N.*XaXcXzX;X*.                h.G.>XuXaX                                  ",
"                          N.'.dXcXzXfX                  l.M.*XqXaXaX                                ",
"                          Y.=XdXcXzXgXuX                B.M.].:XfXgX                                ",
"                          Y.9XkXcXxXgXuX                z.G.>XyXgXhX                                ",
"                        z.U.0XgXcXzXgXyX                l.N.=XyXaXhXfX                              ",
"                        z.R.0XkXxXzXgXaX                z.m.'.uXyXhXgX                              ",
"                        z.E.wXkXxXzXgXjX                B.m.`.qXyXgXhX                              ",
"                        O.U.wXkXxXzXgXfXqX                l.T.0XqXwX3XoX                            ",
"                      ` ..5.@XjXzXzXgXfXuX                B.S.J.OX}..Xe.                            ",
"                      ` ` $. X&X3XjXpXdXqX              M o.} #.q.<.7. .&.                          ",
"                        y n } w.y.|.w.OXXX2.            m ` [ } &.k.T.m.                            ",
"                          n v z  .y.y.r.q.                ` e U S.=XeXpXuX                          ",
"                        x.x.U.c.{ 7.t.9.OX                m c g.S.Q.wXrX&X.X                        ",
"                      U.Q.rXsXsXM.<.|.>X,X                i D p.z.Y.A.{.y.e.e.                      ",
"                  { O.C.rXkXxXcXkXiXfXaXG.                & u Z I O.$.e..X Xr.                      ",
"                  { @.5.oXkXcXxXkXuXR.a.S                     > i c J o.k.*.K                       ",
"                s m  .1.e.&X9XR.s.i.f a                           > i s d s                         ",
"                : 2 x D P G A d i                                                                   ",
"                                                                                                    ",
"                                                                                                    ",
"                                                                                                    "
};
