/* XPM */
static char *c0bc343c16324769f1a8a5942b353b13q5k4LcNDZ1N0ntuA[] = {
/* columns rows colors chars-per-pixel */
"50 50 238 2 ",
"   c #030201",
".  c #0D0908",
"X  c #130C0B",
"o  c #170F18",
"O  c #1A1516",
"+  c #240003",
"@  c #2B0207",
"#  c #340000",
"$  c #380000",
"%  c #271B19",
"&  c #360C18",
"*  c #35271E",
"=  c #2E2118",
"-  c #1D0D25",
";  c #261928",
":  c #36163C",
">  c #2E1130",
",  c #2D2525",
"<  c #2A2627",
"1  c #352B27",
"2  c #3E322A",
"3  c #393637",
"4  c #2F2933",
"5  c #490002",
"6  c #5B051A",
"7  c #570D12",
"8  c #680609",
"9  c #6B191A",
"0  c #751B19",
"q  c #780A07",
"w  c #430A21",
"e  c #590B21",
"r  c #412A27",
"t  c #473729",
"y  c #462C34",
"u  c #483A37",
"i  c #543734",
"p  c #792728",
"a  c #68353A",
"s  c #52473C",
"d  c #604135",
"f  c #3A1B45",
"g  c #361845",
"h  c #3D214D",
"j  c #3E2552",
"k  c #3F3F42",
"l  c #501A48",
"z  c #44274B",
"x  c #573847",
"c  c #4A2D5A",
"v  c #462756",
"b  c #542758",
"n  c #4F345B",
"m  c #52385A",
"M  c #492E4A",
"N  c #7B3955",
"B  c #72354D",
"V  c #4A3363",
"C  c #543562",
"Z  c #553B62",
"A  c #5A3D66",
"S  c #5B3D6A",
"D  c #5D3464",
"F  c #472F63",
"G  c #643C69",
"H  c #4B4547",
"J  c #544B45",
"K  c #594B47",
"L  c #5C534B",
"P  c #57514A",
"I  c #4D4D52",
"U  c #564558",
"Y  c #5A5454",
"T  c #585556",
"R  c #674448",
"E  c #60564E",
"W  c #64574C",
"Q  c #705248",
"!  c #6A445C",
"~  c #645A53",
"^  c #685B55",
"/  c #794A53",
"(  c #6D635B",
")  c #74665B",
"_  c #5E426B",
"`  c #5B4567",
"'  c #5C4E6D",
"]  c #61456C",
"[  c #644A6D",
"{  c #654968",
"}  c #755A67",
"|  c #664B71",
" . c #6A4E74",
".. c #664A75",
"X. c #6C5275",
"o. c #6D537A",
"O. c #695D7F",
"+. c #71567C",
"@. c #74587E",
"#. c #755B75",
"$. c #6D516F",
"%. c #6A6667",
"&. c #786B69",
"*. c #7D746C",
"=. c #7A7166",
"-. c #6E6E72",
";. c #766678",
":. c #777777",
">. c #880C05",
",. c #9A1D16",
"<. c #8C1711",
"1. c #A51C1A",
"2. c #8F231D",
"3. c #AD2017",
"4. c #9D2925",
"5. c #90312D",
"6. c #AA2A26",
"7. c #B5322B",
"8. c #A83732",
"9. c #C01F16",
"0. c #CC332C",
"q. c #875720",
"w. c #8E6A20",
"e. c #97324B",
"r. c #82415C",
"t. c #8B5653",
"y. c #90665F",
"u. c #854763",
"i. c #82756D",
"p. c #85766E",
"a. c #857C73",
"s. c #8C7E76",
"d. c #847D7D",
"f. c #937A79",
"g. c #816469",
"h. c #AE7277",
"j. c #BB6D5A",
"k. c #C35658",
"l. c #EA5745",
"z. c #D36B5A",
"x. c #C67872",
"c. c #F07564",
"v. c #F2705E",
"b. c #AF8626",
"n. c #FCBB2A",
"m. c #FFF227",
"M. c #9C9D5C",
"N. c #8B827A",
"B. c #878078",
"V. c #94897F",
"C. c #BBA269",
"Z. c #A28C6E",
"A. c #D9934F",
"S. c #CDA55E",
"D. c #D18F76",
"F. c #FB8975",
"G. c #F68A79",
"H. c #D1BF70",
"J. c #DDCD52",
"K. c #FFFF49",
"L. c #FFE74A",
"P. c #785C82",
"I. c #776282",
"U. c #857586",
"Y. c #8A7493",
"T. c #866A8C",
"R. c #A97787",
"E. c #8A8784",
"W. c #938B82",
"Q. c #958984",
"!. c #9D948B",
"~. c #97918A",
"^. c #989594",
"/. c #98849A",
"(. c #A1998F",
"). c #A0958E",
"_. c #A59C94",
"`. c #A79A97",
"'. c #B18B8B",
"]. c #ABA29A",
"[. c #A7A198",
"{. c #B2A49E",
"}. c #9B87AB",
"|. c #A18DA9",
" X c #A598A7",
".X c #AB9BB9",
"XX c #B79BA1",
"oX c #ADA9A5",
"OX c #B3AAA6",
"+X c #B8B2AB",
"@X c #B5A6BA",
"#X c #BDBAB3",
"$X c #BDBCBD",
"%X c #B8B3B4",
"&X c #CF938A",
"*X c #D3928C",
"=X c #F19384",
"-X c #D8A59E",
";X c #F0A392",
":X c #CA9FA6",
">X c #C5ABA6",
",X c #DAA8A3",
"<X c #C2B2AF",
"1X c #C2BDB7",
"2X c #DCB7AF",
"3X c #F0B9B0",
"4X c #C4C1BD",
"5X c #C9C4BE",
"6X c #D8C2BA",
"7X c #FAC6BE",
"8X c #BEB1C0",
"9X c #C4B9C4",
"0X c #CAC6C2",
"qX c #CDCAC5",
"wX c #C9C7C7",
"eX c #D1CDCA",
"rX c #D6D2CD",
"tX c #DDDCDB",
"yX c #D9D6D6",
"uX c #CECCD1",
"iX c #E6D7D5",
"pX c #F7D2CB",
"aX c #E3E1DD",
"sX c #E9E5DF",
"dX c #F2E1DE",
"fX c #DED7E2",
"gX c #E2DDE2",
"hX c #DFE0E0",
"jX c #E4E3E2",
"kX c #EDECEB",
"lX c #E9E8E8",
"zX c #F5EBE9",
"xX c #F1EDF1",
"cX c #F5F4F4",
"vX c #FAF5F4",
"bX c #FFFFFF",
"nX c #F8F8F8",
"mX c #F1F0EE",
/* pixels */
"bXbXbXbXbXbXbXbXbXbXbXbXbXbXbXbXbXbXbXbXbXbXbXbXbXbXbXbXbXbXbXbXbXbXbXbXbXbXbXbXbXbXbXbXbXbXbXbXbXbX",
"bXbXbXbXbXbXbXbXbXbXbXbXbXbXbXbXbXbXbXbXbXbXbXbXbXbXbXbXbXbXbXbXbXbXbXbXbXbXbXbXbXbXbXbXbXbXbXbXbXbX",
"bXbXbXbXbXbXbXbXbXbXbXbXbXbXbXbXbXpXvXbXbXbXzXxXbXkXnXbXzXnXbXbXbXbXbXbXbXbXbXbXbXbXbXbXbXbXbXbXbXbX",
"bXbXbXbXbXcXkXnXbXbXbXbXbXbXbXbXbXdX=X3XvXbXyXlXfX@X8XfXaXzXpX;X3XbXbXbXbXbXbXbXbXbXbXbXbXbXbXbXbXbX",
"bXbXbXbXcX5X5XrXcXbXbXbXbXbXbXbXbXbXzXF.F.7XgX1X.XY..X.XwX,Xv.G.zXbXbXbXbXbXbXbXbXbXbXbXbXbXbXbXbXbX",
"bXbXbXbXlX+X5X4X5XvXbXbXbXbXbXbXbXbXbXvX=Xl.z.:XR.*XR.*XR.v.F.pXbXbXbXbXbXbXbXbXbXbXbXbXbXbXbXbXbXbX",
"bXbXbXbXkXOX<X4X].5XnXbXbXbXbXbXbXbXbXbXdXz.9.1.T.e.r.'.k.l.G.nXbXbXbXbXbXbXbXbXbXbXbXbXbXbXbXbXbXbX",
"bXbXbXbXnX+X{.4X{.].qXbXbXbXbXbXbXbXbXvXbX&X3.e.D.J.H.J.h.0.=XbXnXbXbXbXbXbXbXbXbXbXbXbXbXbXbXbXbXbX",
"bXbXbXbXbX5X[.1X5X{._.qXbXbXbXbXbXbXbXbXbX2X4.N n.K.K.m.S.6.3XnXbXbXbXbXbXbXbXbXbXbXbXbXbXbXbXbXbXbX",
"bXbXbXbXbXaX[.oXrXaX]._.qXbXbXbXcXbXeX*.~.&.a 5.A.w.b.S.D.2.y.:.yXbXcXbXbXbXbXbXbXbXbXbXbXbXbXbXbXbX",
"bXbXbXbXbXcXOX[.#XbXsX].).5XnXbX$Xd.s.I 3 I %.K ! j F O.;.R ) %.N._.^.cXbXbXbXbXbXbXbXbXbXbXbXbXbXbX",
"bXbXbXbXbXbXqX).OXaXbXsX].V.OX8X$.k } E.-.H 3 4 1 t ( ) T T ~ &.^.U.} 8XbXbXbXbXbXbXbXbXbXbXbXbXbXbX",
"bXbXbXbXbXbXlX_.].eXbXbXmXOXU.Y.n - < &.:.-.I < < 4 C.L.B.H Y d.E.B.Y }.gXbXbXbXbXbXbXbXbXbXbXbXbXbX",
"bXbXbXbXbXbXbX+X!.1XcXbXbXbX}.Y.I.> ; K %.%.%.T 3 O s M.P I d.d.U.Q M |.@XbXbXbXbXbXbXbXbXbXbXbXbXbX",
"bXbXbXbXbXbXbXrX~.oXjXbXbXiXT.P.A > * > U P I I H k 3 y T :.:.:.V.} - T.}.gXbXbXbXbXbXbXbXbXbXbXbXbX",
"bXbXbXbXbXbXbXcX_.!.qXvXbX.X_ X.:  XR > h M H 3 4 3 H R -.-.:.%./.fX> #.B XXbXbXbXbXbXbXbXbXbXbXbXbX",
"bXbXbXbXbXbXbXbX1XE.#X6XZ.k M m X.bXg.@ z f z y y 1 3 a %.*.g.l .XbXt.*X=Xz.j.bXbXbXbXbXbXbXbXbXbXbX",
"bXbXbXbXbXbXbXbXaXW.[.5XJ X < < &.bXf.+ m U h g f x R ! { ! n X.nXyXZ.nXnXoX>XbXbXbXbXbXbXbXbXbXbXbX",
"bXbXbXbXbXbXbXbXkXN.%.+X:.X < 1 < bX'.+ & ;.` v ` X.@.I. .S Y.f.zX9X$XbX0X%XbXbXbXbXbXbXbXbXbXbXbXbX",
"bXbXbXbXbXbXbXbXlXoX%XqXoX1 < < 3 bX'.@ @ : ` ` [ [ X.X.| m Y.a OXoX0XaX#XnXbXbXbXbXbXbXbXbXbXbXbXbX",
"bXbXbXbXbXbXbXbXcX$X+X4X5XP % < 2 bXXX$ @ @ % ; . X o O o = 9 5 ;.%.T qXbXbXbXbXbXbXbXbXbXbXbXbXbXbX",
"bXbXbXbXbXbXbXbXbX4XoXqX{.i.2 O J bX+X$ @ + X X       X . % 0 5 h.^.^.bXbXbXbXbXbXbXbXbXbXbXbXbXbXbX",
"bXbXbXbXbXbXbXbXvX~.E.W.( ) w.t &.bX<X$ @ r m ; ; o o ; 4 M ! 8 9 ^ %XbXnXbXbXbXbXbXbXbXbXbXbXbXbXbX",
"bXbXbXbXbXbXbXbXrX) ) s s d q.2 i.bX<X$ + $.T.j c f n X.] m I.p 5 2 %XbXbXbXbXbXbXbXbXbXbXbXbXbXbXbX",
"bXbXbXbXbXbXbXbX~.t t 2 * d r   s 4X{.@ @ D { g : g M ] m m ' B 8 s $XbXbXbXbXbXbXbXbXbXbXbXbXbXbXbX",
"bXbXbXbXbXbXbXbXi.= * = = d r . s i.f.# & v j g : g c ] Z v j e.q i uXbXbXbXbXbXbXbXbXbXbXbXbXbXbXbX",
"bXbXbXbXbXbXbXnXN.* * * * t %.x `.lX/ $ & v j g g g C _ S F V N >.9 '.bXnXbXbXbXbXbXbXbXbXbXbXbXbXbX",
"bXbXbXbXbXbXbXnXW.) ) ( ( =.Q.&.[.eXy 5 w F v v g j S _ S C V / ,.q 2.cXbXbXbXbXbXbXbXbXbXbXbXbXbXbX",
"bXbXbXbXbXbXbX0Xa.=.( J s L =.V.!.W.a 5 w v v v z v S _ _ C _ u.,.2.>.&XbXnXbXbXbXbXbXbXbXbXbXbXbXbX",
"bXbXbXbXbXbXcXB.( s T J P P 1 2 s P *.7 w v b V v c S ] X._ ..u.6.2.2.8.nXbXbXbXbXbXbXbXbXbXbXbXbXbX",
"bXbXbXbXbXbXbXoX. , !.( B.!.2 O s s W 9 e V A Z c Z |  .+...P.! 7.,.8.<.,XbXnXbXbXbXbXbXbXbXbXbXbXbX",
"bXbXbXbXbXbXbXbXW.L !.( B.[.P 2 !.N.9 9 e S | ` Z ]  . .P...P.N 7.1.4.6.8.nXbXbXbXbXbXbXbXbXbXbXbXbX",
"bXbXbXbXbXbXbXbXcXa.W.( B._.L J _.p.p 5.6 S o.] ]  .X.+.P.P.P.N 7.6.1.8.6.,XbXbXbXbXbXbXbXbXbXbXbXbX",
"bXbXbXbXbXbXbXbXjXa.E.( a.(.L E [.p.5.0 e D o. . . .+.+.P.P.S b 6.6.>.8.x.*XcXbXbXbXbXbXbXbXbXbXbXbX",
"bXbXbXbXbXbXbXbXaXa.N.( B.!.~ ~ ].a.5.8 6 b P.o.o. .+.@.P.P.P.N 3.k.,X,Xx.D.rXbXbXbXbXbXbXbXbXbXbXbX",
"bXbXbXbXbXbXbXbXtXa.N.^ a.!.L ( ].f.0 8 a l ..+.o.o.+.@.P.P.V R.3XbXbXbXzX-X*XvXbXbXbXbXbXbXbXbXbXbX",
"bXbXbXbXbXbXnXbXyXB.B.~ p.!.W ~ ].p.t.iXeXl | +. .o.+.@.g.P.D 8XbXbXnXbXbXbX,X2XbXbXbXbXbXbXbXbXbXbX",
"bXbXbXbXbXbXbXbXyX*.*.W i.!.L W (.~.vXbXiXl G +.o. .+.@.P.P.G 9XbXnXbXbXbXbXbX*XzXbXbXbXbXbXbXbXbXbX",
"bXbXbXbXbXbXbXbXrX*.i.L i.(.L ( Q.`.bXbXlXD D +. .o.o.@.P.P.S 8XbXbXbXbXbXbXbXdX,XbXbXbXbXbXbXbXbXbX",
"bXbXbXbXbXbXbXbXqX*.i.L N.(.L ( _.`.bXbXiXg.D X. .{  .+.P.G S Y.nXbXbXbXbXbXbXbXpXdXbXbXbXbXbXbXbXbX",
"bXbXbXbXbXbXbXbXqX*.K 2 2 E ~ K i.!.bXbX9X#.G  .| [  .+... .` T.lXbXbXbXbXbXbXbXbXnXbXbXbXbXbXbXbXbX",
"bXbXbXbXbXbXbXbXrXW t r s W s W ) 5XbXbX`.$. . . .[  .o.| S S X.uXbXbXbXbXbXbXbXbXbXbXbXbXbXbXbXbXbX",
"bXbXbXbXbXbXbXbXbXaXrXyXtX% W bXbXbXbXcXU.$.X. .[ ] | o.| S S C @XbXbXbXbXbXbXbXbXbXbXbXbXbXbXbXbXbX",
"bXbXbXbXbXbXbXbXbXbXbXbXbX&.`.bXnXnXbXyX#.[ [ [ [ ] | o..._ ` C U.vXbXbXbXbXbXbXbXbXbXbXbXbXbXbXbXbX",
"bXbXbXbXbXbXbXbXbXbXbXbXbXcXcXbXbXbXbXgX;.] { { ] ] .. ...| | D |.bXbXbXbXbXbXbXbXbXbXbXbXbXbXbXbXbX",
"bXbXbXbXbXbXbXbXcXlXhXtXtXhXjXtXjXjXlXkXOX{ | | [ ] | +. .o...#.rXnXnXbXbXbXbXbXbXbXbXbXbXbXbXbXbXbX",
"bXbXbXbXbXbXbXbXcXhXuXuXwX$X$X0XwXuXtXgX9XU.] ] G ] | { ..X.I. XyXkXxXcXcXkXkXcXnXbXbXbXbXbXbXbXbXbX",
"bXbXbXbXbXbXbXbXbXbXbXbXbXnXcXcXnXnXbXnXxXiX1X`.Y.U.U./. X9XiXxXnXbXbXbXbXbXnXnXcXnXbXbXbXbXbXbXbXbX",
"bXbXbXbXbXbXbXbXbXbXbXbXbXbXbXbXbXbXbXbXbXbXnXcXxXlXkXxXcXbXbXbXbXbXbXbXbXbXbXbXbXbXbXbXbXbXbXbXbXbX",
"bXbXbXbXbXbXbXbXbXbXbXbXbXbXbXbXbXbXbXbXbXbXbXbXbXbXbXbXbXbXbXbXbXbXbXbXbXbXbXbXbXbXbXbXbXbXbXbXbXbX"
};
